HIERARCHY
ROOT Hips
{
	OFFSET 0.00 0.00 0.00
	CHANNELS 6 Xposition Yposition Zposition Xrotation Yrotation Zrotation
	JOINT LeftUpLeg
	{
		OFFSET 3.34807 0.00000 0.00000
		CHANNELS 3 Xrotation Yrotation Zrotation
		JOINT LeftLeg
		{
			OFFSET 0.00000 -16.98552 0.00000
			CHANNELS 3 Xrotation Yrotation Zrotation
			JOINT LeftFoot
			{
				OFFSET 0.00000 -16.83686 0.00000
				CHANNELS 3 Xrotation Yrotation Zrotation
				JOINT LeftToeBase
				{
					OFFSET 0.00000 -1.59599 5.95633
					CHANNELS 3 Xrotation Yrotation Zrotation
					End Site
					{
						OFFSET 0.00000 0.00000 2.95275
					}
				}
			}
		}
	}
	JOINT RightUpLeg
	{
		OFFSET -3.34807 0.00000 0.00000
		CHANNELS 3 Xrotation Yrotation Zrotation
		JOINT RightLeg
		{
			OFFSET 0.00000 -16.98552 0.00000
			CHANNELS 3 Xrotation Yrotation Zrotation
			JOINT RightFoot
			{
				OFFSET 0.00000 -16.83686 0.00000
				CHANNELS 3 Xrotation Yrotation Zrotation
				JOINT RightToeBase
				{
					OFFSET 0.00000 -1.59599 5.95633
					CHANNELS 3 Xrotation Yrotation Zrotation
					End Site
					{
						OFFSET 0.00000 0.00000 2.95275
					}
				}
			}
		}
	}
	JOINT Spine
	{
		OFFSET 0.00000 0.03937 0.00000
		CHANNELS 3 Xrotation Yrotation Zrotation
		JOINT Spine1
		{
			OFFSET 0.00000 7.93124 0.00000
			CHANNELS 3 Xrotation Yrotation Zrotation
			JOINT Neck
			{
				OFFSET 0.00000 8.48368 0.00000
				CHANNELS 3 Xrotation Yrotation Zrotation
				JOINT Head
				{
					OFFSET 0.00000 6.65077 0.00000
					CHANNELS 3 Xrotation Yrotation Zrotation
					End Site
					{
						OFFSET 0.00000 4.52755 0.00000
					}
				}
			}
			JOINT LeftShoulder
			{
				OFFSET 0.00000 8.48368 0.00000
				CHANNELS 3 Xrotation Yrotation Zrotation
				JOINT LeftArm
				{
					OFFSET 7.74502 -0.00003 0.00000
					CHANNELS 3 Xrotation Yrotation Zrotation
					JOINT LeftForeArm
					{
						OFFSET 12.49824 -0.00005 0.00000
						CHANNELS 3 Xrotation Yrotation Zrotation
						JOINT LeftHand
						{
							OFFSET 9.88337 -0.00004 0.00000
							CHANNELS 3 Xrotation Yrotation Zrotation
							JOINT LeftHandThumb
							{
								OFFSET 0.00000 0.00000 0.00000
								CHANNELS 3 Xrotation Yrotation Zrotation
								End Site
								{
									OFFSET 0.00000 0.00000 3.93700
								}
							}
							JOINT L_Wrist_End
							{
								OFFSET 3.93700 -0.00001 0.00000
								CHANNELS 3 Xrotation Yrotation Zrotation
							}
						}
					}
				}
			}
			JOINT RightShoulder
			{
				OFFSET 0.00000 8.48368 0.00000
				CHANNELS 3 Xrotation Yrotation Zrotation
				JOINT RightArm
				{
					OFFSET -7.74502 -0.00003 0.00000
					CHANNELS 3 Xrotation Yrotation Zrotation
					JOINT RightForeArm
					{
						OFFSET -12.49824 -0.00005 0.00000
						CHANNELS 3 Xrotation Yrotation Zrotation
						JOINT RightHand
						{
							OFFSET -9.88337 -0.00004 0.00000
							CHANNELS 3 Xrotation Yrotation Zrotation
							JOINT RightHandThumb
							{
								OFFSET 0.00000 0.00000 0.00000
								CHANNELS 3 Xrotation Yrotation Zrotation
								End Site
								{
									OFFSET 0.00000 0.00000 3.93700
								}
							}
							JOINT R_Wrist_End
							{
								OFFSET -5.39369 -0.00002 0.00000
								CHANNELS 3 Xrotation Yrotation Zrotation
							}
						}
					}
				}
			}
		}
	}
}
MOTION
Frames: 19
Frame Time: 0.033332
 -32.0750 32.3309 -10.3426 122.1404 77.8838 -123.9759 -2.9734 8.1809 4.9443 37.0262 -0.0000 0.0000 -30.6921 0.4241 -23.2053 -5.4177 0.0000 0.0000 -44.3358 -7.9225 -3.8537 76.5639 0.0000 0.0000 -13.6795 -22.8039 32.4651 -4.1554 0.0000 0.0000 -0.4882 -5.3476 1.0735 18.7943 -9.7426 -6.8130 -13.6026 4.4024 -0.3077 -12.2352 -14.9954 6.5168 -15.1423 11.5808 24.3813 -40.6659 -17.6249 -96.2960 -179.9991 -76.7736 -179.9989 -17.9149 -56.8610 47.6832 -0.0000 0.0000 -0.0000 -0.0000 0.0000 -0.0000 27.1997 -20.9899 -17.8686 30.0487 48.8346 47.0298 -0.0005 68.3940 0.0004 -15.2480 -5.6835 -14.5470 -0.0000 -0.0000 0.0000 -0.0000 -0.0000 0.0000
 -28.6550 32.7576 -10.1062 113.4031 78.4136 -116.2758 3.5047 11.2559 6.9865 32.2352 -0.0000 0.0000 -17.9020 -2.7010 -21.1768 -23.5749 0.0000 0.0000 -49.0474 -6.7641 -1.3328 65.2733 -0.0000 0.0000 -11.6096 -23.1676 32.7295 -5.0849 -0.0000 0.0000 -0.9831 -6.7796 0.9515 18.6729 -10.4101 -4.5380 -14.4458 5.2268 -0.2927 -11.8201 -12.3015 5.9464 -16.9344 10.7988 27.7853 -44.6416 -12.7872 -92.5911 -179.9994 -70.1184 -179.9992 -17.2993 -55.7704 46.1489 -0.0000 0.0000 -0.0000 -0.0000 0.0000 -0.0000 28.9148 -22.4853 -20.0294 32.1551 43.7097 46.8801 -0.0008 74.4175 0.0006 -17.1660 -5.7415 -12.7504 -0.0000 0.0000 -0.0000 -0.0000 0.0000 -0.0000
 -25.0307 33.2667 -9.9461 99.5858 78.8517 -103.2062 9.3657 12.2999 7.3271 27.7278 -0.0000 0.0000 0.2930 -3.7263 -16.5833 -41.5600 0.0000 -0.0000 -49.7468 -6.3840 0.9829 49.7859 -0.0000 0.0000 -3.6278 -20.5871 32.9199 -8.7155 0.0000 -0.0000 -1.4362 -7.5993 0.7615 18.8548 -10.1818 -1.7925 -15.4748 6.2915 0.4667 -11.9324 -9.5984 3.5336 -17.6468 11.2871 30.0604 -44.4480 -9.0886 -87.6326 -179.9996 -64.6865 -179.9993 -17.6128 -54.3852 43.8519 -0.0000 0.0000 -0.0000 -0.0000 0.0000 -0.0000 29.6174 -23.5065 -21.8307 27.9650 39.0066 52.3828 -0.0011 78.7420 0.0009 -21.1658 -4.8324 -14.5224 -0.0000 0.0000 -0.0000 -0.0000 0.0000 -0.0000
 -21.2380 33.6002 -9.9133 91.1042 78.6758 -94.6809 13.0563 10.9339 6.4049 26.8054 -0.0000 0.0000 11.1596 -2.5231 -17.1262 -24.5206 0.0000 0.0000 -47.5268 -8.4102 1.4668 36.0719 -0.0000 0.0000 0.5831 -16.2126 35.6284 -10.9758 -0.0000 0.0000 -1.8484 -8.5598 0.4744 18.9082 -10.0967 1.0562 -16.6741 7.5455 2.1383 -11.0928 -7.4382 -0.5124 -18.1194 11.6262 31.2436 -37.0111 -8.2173 -83.6766 -179.9996 -62.1556 -179.9993 -17.7610 -54.0866 46.8467 -0.0000 0.0000 -0.0000 -0.0000 0.0000 -0.0000 29.2979 -23.0320 -21.6934 21.3921 33.5895 59.6492 -0.0020 84.1141 0.0018 -25.2868 -4.7052 -18.2514 -0.0000 0.0000 -0.0000 -0.0000 0.0000 -0.0000
 -17.4323 33.5944 -9.9304 83.5576 78.3818 -86.3192 12.5206 10.4551 4.9054 33.1793 0.0000 0.0000 5.1444 1.5770 -27.4270 0.9530 0.0000 0.0000 -45.2748 -11.3660 1.0599 32.1914 -0.0000 0.0000 3.5946 -19.5918 42.1327 -9.4721 0.0000 0.0000 -2.1068 -8.9115 0.2640 18.6027 -9.7057 3.0984 -16.7043 8.6735 4.1867 -11.9727 -6.1189 -5.5537 -17.0498 12.9696 30.1009 -24.7142 -11.6892 -81.1827 -179.9995 -65.8492 -179.9993 -21.6091 -52.0627 43.1487 -0.0000 0.0000 -0.0000 -0.0000 0.0000 -0.0000 28.0435 -21.4673 -19.1156 13.8267 30.2864 66.4815 -0.0070 88.2875 0.0068 -9.4680 -6.1936 -15.6227 -0.0000 -0.0000 0.0000 -0.0000 -0.0000 0.0000
 -13.6408 33.2853 -9.9213 75.3792 78.6390 -77.7865 8.4464 12.5492 4.7970 44.6553 -0.0000 0.0000 -1.4275 3.3049 -25.6437 1.1600 0.0000 -0.0000 -42.7515 -14.7503 0.1109 38.3627 -0.0000 0.0000 -6.1452 -21.0691 24.3403 6.1714 0.0000 -0.0000 -2.3684 -8.7247 0.5626 19.5475 -8.8355 4.9099 -16.6563 9.5721 5.9633 -13.1471 -5.6053 -10.1118 -13.2303 15.8355 26.6183 -12.6949 -17.2082 -79.7744 -179.9990 -77.6637 -179.9988 -18.7520 -47.3214 35.2981 -0.0000 0.0000 -0.0000 -0.0000 0.0000 -0.0000 25.1945 -18.8221 -14.9521 4.1625 28.0026 73.5794 -179.9931 88.2451 179.9929 -4.3202 -6.2110 -18.1664 -0.0000 -0.0000 0.0000 -0.0000 -0.0000 0.0000
 -10.0241 32.7034 -9.8255 60.7741 78.7331 -63.7840 1.2981 14.4986 6.2814 59.8127 -0.0000 0.0000 -7.5221 6.5846 -24.7363 0.1825 0.0000 -0.0000 -38.8743 -15.1056 0.8240 45.5861 -0.0000 0.0000 -18.5976 -19.2374 19.9900 12.5159 -0.0000 0.0000 -1.7347 -8.0279 0.7208 20.5172 -6.9172 7.5906 -15.7210 10.1664 6.3916 -15.1973 -5.0584 -12.4990 -9.5264 17.8739 23.5867 -1.6026 -22.3415 -80.3588 -0.0014 -81.4168 -0.0012 -13.9096 -43.8640 30.6539 -0.0000 0.0000 -0.0000 -0.0000 0.0000 -0.0000 23.0035 -15.4774 -9.7178 -9.3497 26.9774 79.8170 -179.9979 84.1910 179.9977 -3.0286 -7.7581 -20.7767 -0.0000 0.0000 -0.0000 -0.0000 0.0000 -0.0000
 -6.7725 32.1076 -9.6786 40.7420 75.7882 -46.1333 -10.4789 15.5393 10.1534 76.4444 -0.0000 0.0000 -14.9420 9.6694 -22.4790 0.9539 0.0000 -0.0000 -35.7487 -11.9669 4.6911 51.9732 -0.0000 0.0000 -24.8505 -19.4349 20.8667 12.0401 -0.0000 0.0000 -0.6915 -6.1723 1.1576 20.7048 -3.3418 10.6675 -14.5102 10.7687 6.0455 -17.0592 -4.6322 -12.6880 -8.0183 18.5811 23.2622 7.0553 -29.3758 -83.7884 -0.0003 -53.9180 -0.0001 -11.1861 -42.5297 28.1670 -0.0000 -0.0000 0.0000 -0.0000 -0.0000 0.0000 19.7865 -10.6733 -4.9508 -25.8658 28.9793 85.2283 -179.9989 79.2986 179.9987 -3.0605 -7.4221 -20.3776 -0.0000 0.0000 -0.0000 -0.0000 0.0000 -0.0000
 -3.6728 31.7219 -9.5792 27.2134 71.0038 -34.3596 -24.5273 14.5330 14.5607 89.8275 -0.0000 0.0000 -20.9800 11.8568 -15.7526 0.6601 -0.0000 -0.0000 -31.5471 -7.7557 7.7671 54.8115 -0.0000 0.0000 -29.1028 -18.8702 22.7760 9.7969 -0.0000 -0.0000 -0.1909 -4.1114 0.7779 21.1868 -0.4038 12.1250 -14.3001 12.4251 7.5031 -16.8260 -3.4816 -13.8641 -6.6731 19.7143 24.1001 18.9234 -37.1334 -85.0989 -0.0002 -42.4713 -0.0001 -16.2543 -42.2895 20.4339 -0.0000 -0.0000 0.0000 -0.0000 -0.0000 0.0000 16.3801 -5.6450 -3.9114 -49.5197 31.5305 95.8427 -179.9991 76.4915 179.9989 -4.6853 -11.0849 -20.9703 -0.0000 0.0000 -0.0000 -0.0000 0.0000 -0.0000
 -0.3153 31.5780 -9.5542 22.8261 69.3641 -30.5466 -36.7876 8.5752 15.8176 95.9929 -0.0000 0.0000 -24.6008 13.4497 -11.4376 -1.2514 -0.0000 0.0000 -24.7386 -5.6528 7.2396 53.8236 -0.0000 0.0000 -32.6058 -18.0776 25.1346 7.8697 0.0000 0.0000 -0.6209 -2.9758 0.8623 22.1365 0.6296 11.8402 -12.9783 12.9472 6.6997 -18.7961 -4.4229 -12.1885 -2.2325 24.5898 23.7992 33.4315 -47.1031 -77.2169 -0.0003 -51.8190 -0.0001 -17.3452 -42.5539 14.2198 -0.0000 0.0000 -0.0000 -0.0000 0.0000 -0.0000 11.2658 -1.6214 -9.3155 -66.7839 24.0024 106.9210 -179.9994 71.7640 179.9991 -4.5092 -8.0315 -19.9205 -0.0000 0.0000 -0.0000 -0.0000 0.0000 -0.0000
 3.3829 31.8239 -9.5557 22.1212 71.0375 -29.2774 -45.7307 1.5248 13.4223 93.2096 -0.0000 0.0000 -26.4492 12.8367 -9.6536 -0.2083 -0.0000 0.0000 -15.2275 -4.9928 4.7218 49.0989 -0.0000 0.0000 -31.5262 -18.5004 30.8944 4.1896 -0.0000 -0.0000 -1.1887 -0.6957 2.2646 21.6663 1.5077 8.5291 -12.4683 10.4304 6.1334 -18.3125 -7.3360 -11.0492 1.8632 25.4935 24.6316 47.7486 -50.9941 -67.1018 -0.0004 -61.5962 -0.0002 -14.3839 -42.4402 9.6740 -0.0000 0.0000 -0.0000 -0.0000 0.0000 -0.0000 6.7063 -1.4703 -14.1257 -73.3382 15.2628 108.2703 -179.9996 62.9920 179.9993 -3.1347 -9.5441 -20.0938 -0.0000 0.0000 -0.0000 -0.0000 0.0000 -0.0000
 7.3953 32.4970 -9.5858 21.5765 74.5281 -26.6787 -50.2961 -1.7909 9.4631 81.6978 -0.0000 0.0000 -22.7289 10.4749 -9.9696 -3.3541 0.0000 -0.0000 -3.8373 -5.0748 0.8971 41.9655 -0.0000 0.0000 -23.7507 -17.9072 36.7868 -4.2346 0.0000 0.0000 -1.5939 0.9997 3.0381 21.2951 0.8866 3.6484 -12.3873 8.2655 6.1961 -15.6880 -9.7214 -10.3461 5.2962 25.7312 26.0075 53.5460 -48.6076 -64.3643 -0.0005 -66.7448 -0.0003 -12.2483 -42.3131 4.6618 -0.0000 0.0000 -0.0000 -0.0000 0.0000 -0.0000 4.0452 -2.4187 -16.3893 -74.9203 11.0408 104.1641 -179.9997 56.5764 179.9994 -3.2019 -9.3741 -19.7356 -0.0000 -0.0000 0.0000 -0.0000 -0.0000 0.0000
 11.6492 33.4066 -9.5307 18.3821 77.6049 -22.1255 -49.9361 -0.8432 8.1337 63.8062 -0.0000 0.0000 -11.6193 5.6721 -13.9487 -8.3330 0.0000 0.0000 6.9297 -5.7832 -1.8364 35.2878 0.0000 0.0000 -9.0857 -15.3699 37.1103 -15.7006 -0.0000 -0.0000 -2.3614 1.9878 2.5227 21.6327 0.7164 0.9704 -12.2164 6.5985 5.3257 -12.0782 -10.8146 -9.2851 6.7261 26.7169 26.0418 52.7299 -44.4269 -66.2074 -0.0005 -68.3181 -0.0004 -5.5824 -43.8095 0.0984 -0.0000 -0.0000 0.0000 -0.0000 -0.0000 0.0000 4.9368 -4.4292 -16.6204 -73.6740 13.3300 99.3584 -179.9997 53.8978 179.9994 -4.3910 -8.9001 -18.6488 -0.0000 0.0000 -0.0000 -0.0000 0.0000 -0.0000
 15.9931 34.2566 -9.3316 14.2674 78.3619 -18.3936 -46.8402 3.7820 10.5720 42.9516 -0.0000 0.0000 3.3348 -2.2837 -18.4282 -9.5245 -0.0000 -0.0000 14.0410 -6.6794 -3.0599 31.5263 0.0000 0.0000 6.7424 -12.7267 37.1480 -13.3559 -0.0000 -0.0000 -4.2523 3.1126 2.0669 22.3801 1.5042 -0.3792 -12.4269 5.4053 3.7445 -7.3555 -10.9367 -6.5717 5.8584 27.7875 24.9472 48.4359 -39.1442 -69.9089 -0.0006 -69.2667 -0.0004 2.4088 -43.7933 2.4677 -0.0000 -0.0000 0.0000 -0.0000 -0.0000 0.0000 7.1324 -6.0505 -16.1246 -67.0453 20.4969 95.1774 -179.9997 55.6269 179.9994 -6.2594 -9.3917 -17.0525 -0.0000 -0.0000 0.0000 -0.0000 -0.0000 0.0000
 20.3333 34.7335 -9.1161 9.2774 77.9494 -14.5283 -43.1527 10.8717 13.7855 24.6281 -0.0000 0.0000 12.8424 -9.1266 -23.6643 -7.4447 -0.0000 0.0000 17.2313 -8.0545 -3.9850 33.4350 0.0000 0.0000 13.3716 -12.5333 35.6675 3.5591 -0.0000 0.0000 -6.0230 4.2535 2.5746 22.8151 1.9171 -2.2572 -12.5989 4.6983 1.9789 -3.1052 -10.3391 -2.9838 3.6537 28.7796 23.4042 42.6677 -33.2364 -73.4534 -0.0006 -71.1902 -0.0004 6.0933 -43.0715 8.7901 -0.0000 -0.0000 0.0000 -0.0000 -0.0000 0.0000 9.8211 -7.7555 -15.8826 -56.7556 29.8613 91.8226 -179.9996 62.4637 179.9993 -7.4483 -11.0805 -16.1225 -0.0000 0.0000 -0.0000 -0.0000 0.0000 -0.0000
 24.5532 34.7830 -8.9479 3.7423 78.6015 -10.5153 -40.5943 15.0348 15.7623 16.6149 0.0000 0.0000 14.8470 -3.5521 -26.9702 -8.1151 0.0000 0.0000 17.5233 -9.8701 -4.0562 41.0512 -0.0000 0.0000 9.3326 -19.1162 35.8119 3.8336 0.0000 0.0000 -7.3171 4.5200 3.2338 23.4036 1.4862 -3.6638 -12.2106 4.3444 0.6791 -0.8492 -9.3228 -0.0834 1.1640 29.4099 21.6874 35.0453 -27.4652 -77.1820 -0.0007 -74.2657 -0.0006 8.1235 -42.9069 13.0047 -0.0000 -0.0000 0.0000 -0.0000 -0.0000 0.0000 12.0176 -9.5255 -15.2841 -45.0859 39.3558 87.7264 -179.9992 74.6148 179.9990 -8.6087 -13.1691 -15.2340 -0.0000 0.0000 -0.0000 -0.0000 0.0000 -0.0000
 28.7104 34.3986 -8.8559 -6.8717 80.2981 -0.8334 -38.8004 19.5972 17.0404 18.6810 0.0000 -0.0000 17.3522 2.4326 -29.8333 -7.3028 -0.0000 0.0000 16.0552 -12.1774 -4.5246 51.9714 -0.0000 0.0000 4.8301 -26.7001 34.9321 3.5088 0.0000 0.0000 -7.1940 3.9730 3.0817 23.0013 0.2228 -4.6642 -11.2930 4.6201 0.0088 1.1832 -8.3861 1.8427 -1.5195 29.5903 20.3858 26.9220 -23.0458 -80.8124 -0.0010 -78.0820 -0.0008 7.9200 -42.8048 18.8119 -0.0000 0.0000 -0.0000 -0.0000 0.0000 -0.0000 14.5766 -11.4343 -14.2332 -34.2152 48.0789 82.9322 -0.0060 87.9932 0.0058 -9.1981 -14.8933 -14.3591 -0.0000 0.0000 -0.0000 -0.0000 0.0000 -0.0000
 32.8063 33.5840 -8.9031 -24.9537 82.3930 17.8276 -36.3223 24.4645 16.8128 25.9021 0.0000 0.0000 6.8391 -10.3295 -6.9030 0.1847 0.0000 -0.0000 12.5205 -13.6202 -6.3268 65.2305 -0.0000 0.0000 2.3142 -28.4414 33.6041 3.3775 -0.0000 0.0000 -6.5045 3.1448 2.3511 22.1489 -1.7215 -6.3525 -10.9792 5.1471 -0.0773 4.4465 -7.8934 3.0335 -3.8367 29.1176 19.6053 17.5855 -21.3297 -83.8419 -0.0016 -82.5523 -0.0014 7.6621 -43.2257 21.3592 -0.0000 0.0000 -0.0000 -0.0000 0.0000 -0.0000 16.5085 -12.7668 -13.7935 -23.5201 54.8382 78.2538 -0.0005 67.3623 0.0003 -9.1873 -15.1906 -14.3073 -0.0000 0.0000 -0.0000 -0.0000 0.0000 -0.0000
 36.3549 32.4868 -9.0911 -55.0932 85.4197 49.5132 -33.7861 17.2807 11.5114 38.5217 -0.0000 0.0000 -12.3804 -0.6362 -8.4912 16.1260 0.0000 -0.0000 4.4148 -13.9607 -8.1414 80.9228 -0.0000 0.0000 -0.3763 -25.9489 35.5850 2.4789 0.0000 0.0000 -4.6903 1.9993 1.1396 19.7479 -3.8306 -7.6652 -9.4156 4.4839 -0.4675 3.3095 -7.8007 3.8698 -5.9242 27.4181 17.7441 6.0177 -23.0442 -85.2308 -0.0054 -87.7664 -0.0052 8.8940 -42.9170 21.7825 -0.0000 -0.0000 0.0000 -0.0000 -0.0000 0.0000 18.4787 -13.4565 -13.0084 -10.9280 57.8688 71.1997 -0.0002 49.2984 0.0001 -10.3918 -16.2568 -13.5053 -0.0000 0.0000 -0.0000 -0.0000 0.0000 -0.0000
